<svg width="25" height="25" viewBox="0 0 25 25" fill="none" xmlns="http://www.w3.org/2000/svg">
<path d="M3.12501 14.5833C2.82987 14.5833 2.58231 14.4833 2.38231 14.2833C2.18231 14.0833 2.08265 13.8361 2.08335 13.5417V4.16667C2.08335 3.59375 2.28751 3.10313 2.69585 2.69479C3.10418 2.28646 3.59446 2.08264 4.16668 2.08333H13.5417C13.8368 2.08333 14.0844 2.18333 14.2844 2.38333C14.4844 2.58333 14.584 2.83056 14.5833 3.125C14.5833 3.42014 14.4833 3.66771 14.2833 3.86771C14.0833 4.06771 13.8361 4.16736 13.5417 4.16667H4.16668V13.5417C4.16668 13.8368 4.06668 14.0844 3.86668 14.2844C3.66668 14.4844 3.41946 14.584 3.12501 14.5833ZM7.29168 18.75C6.99654 18.75 6.74897 18.65 6.54897 18.45C6.34897 18.25 6.24932 18.0028 6.25001 17.7083V8.33333C6.25001 7.76042 6.45418 7.26979 6.86251 6.86146C7.27085 6.45313 7.76112 6.24931 8.33335 6.25H17.7083C18.0035 6.25 18.2511 6.35 18.4511 6.55C18.6511 6.75 18.7507 6.99722 18.75 7.29167C18.75 7.58681 18.65 7.83438 18.45 8.03438C18.25 8.23438 18.0028 8.33403 17.7083 8.33333H8.33335V17.7083C8.33335 18.0035 8.23335 18.251 8.03335 18.451C7.83335 18.651 7.58612 18.7507 7.29168 18.75ZM20.8333 22.9167H12.5C11.9271 22.9167 11.4365 22.7125 11.0281 22.3042C10.6198 21.8958 10.416 21.4056 10.4167 20.8333V12.5C10.4167 11.9271 10.6208 11.4365 11.0292 11.0281C11.4375 10.6198 11.9278 10.416 12.5 10.4167H20.8333C21.4063 10.4167 21.8969 10.6208 22.3052 11.0292C22.7136 11.4375 22.9174 11.9278 22.9167 12.5V20.8333C22.9167 21.4063 22.7125 21.8969 22.3042 22.3052C21.8958 22.7135 21.4056 22.9174 20.8333 22.9167ZM20.8333 20.8333V12.5H12.5V20.8333H20.8333Z" fill="#F8F8F8"/>
</svg>
