<svg width="25" height="25" viewBox="0 0 25 25" fill="none" xmlns="http://www.w3.org/2000/svg">
<path d="M22.0574 13.724C22.1109 13.3333 22.1377 12.9297 22.1377 12.5C22.1377 12.0833 22.1109 11.6667 22.044 11.276L24.7613 9.21875C24.8784 9.12487 24.9584 8.9944 24.9877 8.84957C25.017 8.70474 24.9937 8.55451 24.9219 8.42448L22.3519 4.10157C22.2762 3.97079 22.1554 3.87028 22.0108 3.81785C21.8663 3.76542 21.7073 3.76445 21.5621 3.81511L18.3629 5.06511C17.6936 4.57032 16.9842 4.15365 16.1944 3.84115L15.7126 0.533858C15.6889 0.384808 15.611 0.248971 15.4931 0.151014C15.3752 0.0530574 15.2251 -0.000522793 15.07 3.84557e-06H9.92995C9.60869 3.84557e-06 9.35437 0.221358 9.30082 0.533858L8.81894 3.84115C8.02919 4.15365 7.30636 4.58334 6.65046 5.06511L3.45129 3.81511C3.1568 3.71094 2.82216 3.81511 2.66153 4.10157L0.104867 8.42448C-0.0557606 8.69792 -0.0022181 9.03646 0.265495 9.21875L2.98279 11.276C2.91586 11.6667 2.86232 12.0964 2.86232 12.5C2.86232 12.9036 2.88909 13.3333 2.95602 13.724L0.238724 15.7813C0.121632 15.8751 0.0416249 16.0056 0.0123356 16.1504C-0.0169538 16.2953 0.00628629 16.4455 0.0780961 16.5755L2.64814 20.8984C2.80877 21.1849 3.14341 21.276 3.4379 21.1849L6.63707 19.9349C7.30636 20.4297 8.0158 20.8464 8.80555 21.1589L9.28744 24.4661C9.35437 24.7786 9.60869 25 9.92995 25H15.07C15.3913 25 15.659 24.7786 15.6992 24.4661L16.1811 21.1589C16.9708 20.8464 17.6936 20.4297 18.3495 19.9349L21.5487 21.1849C21.8432 21.2891 22.1778 21.1849 22.3385 20.8984L24.9085 16.5755C25.0691 16.2891 25.0022 15.9635 24.7479 15.7813L22.0574 13.724ZM12.5 17.1875C9.84964 17.1875 7.68116 15.0781 7.68116 12.5C7.68116 9.92188 9.84964 7.8125 12.5 7.8125C15.1504 7.8125 17.3188 9.92188 17.3188 12.5C17.3188 15.0781 15.1504 17.1875 12.5 17.1875Z" fill="#F8F8F8"/>
</svg>
