<svg width="28" height="23" viewBox="0 0 28 23" fill="none" xmlns="http://www.w3.org/2000/svg">
<path d="M2.5 20C1.8125 20 1.22375 19.755 0.733752 19.265C0.243752 18.775 -0.000831211 18.1867 2.12224e-06 17.5V2.5C2.12224e-06 1.8125 0.245002 1.22375 0.735002 0.733752C1.225 0.243752 1.81334 -0.000831211 2.5 2.12224e-06H22.5C23.1875 2.12224e-06 23.7763 0.245002 24.2663 0.735002C24.7563 1.225 25.0008 1.81334 25 2.5V10H2.5V17.5H15V20H2.5ZM2.5 5H22.5V2.5H2.5V5ZM21.25 22.5V18.75H17.5V16.25H21.25V12.5H23.75V16.25H27.5V18.75H23.75V22.5H21.25Z" fill="#626262"/>
</svg>
