<svg width="14" height="20" viewBox="0 0 14 20" fill="none" xmlns="http://www.w3.org/2000/svg">
<path d="M0.379001 11.6297C0.628915 11.3796 0.930958 11.2595 1.28513 11.2694C1.6393 11.2792 1.94142 11.4095 2.19151 11.6603L5.72398 15.1903L5.71918 1.25283C5.71906 0.898665 5.83896 0.601541 6.07887 0.361458C6.31879 0.121376 6.61542 0.00169008 6.96875 0.00240185C7.32292 0.00228 7.62004 0.122178 7.86012 0.362095C8.10021 0.602013 8.21989 0.898638 8.21918 1.25197L8.22398 15.1895L11.7853 11.6257C12.0352 11.3757 12.3322 11.2506 12.6764 11.2504C13.0205 11.2503 13.3172 11.3752 13.5665 11.6251C13.8166 11.875 13.9417 12.1721 13.9418 12.5163C13.9419 12.8604 13.817 13.1571 13.5671 13.4064L7.85033 19.1271C7.72537 19.2521 7.58999 19.3409 7.44417 19.3935C7.29836 19.446 7.14212 19.4719 6.97545 19.4712C6.80878 19.4712 6.65252 19.445 6.50667 19.3926C6.36082 19.3401 6.22537 19.2518 6.10033 19.1277L0.348353 13.3797C0.119108 13.1506 0.00442408 12.8644 0.00430596 12.521C0.00418784 12.1777 0.129088 11.8806 0.379001 11.6297Z" fill="#626262"/>
</svg>
