<svg width="14" height="20" viewBox="0 0 14 20" fill="none" xmlns="http://www.w3.org/2000/svg">
<path d="M13.5758 7.88123C13.3245 8.1299 13.0218 8.24829 12.6677 8.23641C12.3136 8.22453 12.0122 8.09251 11.7635 7.84035L8.25107 4.29038L8.177 18.2277C8.17512 18.5818 8.05354 18.8783 7.81227 19.117C7.57099 19.3557 7.2737 19.4737 6.92037 19.471C6.56621 19.4691 6.26977 19.3476 6.03105 19.1063C5.79233 18.865 5.67432 18.5677 5.67703 18.2144L5.75111 4.27709L2.16972 7.82061C1.9184 8.06928 1.62066 8.1927 1.27649 8.19087C0.932333 8.18904 0.636335 8.06246 0.388501 7.81114C0.139833 7.55982 0.0164138 7.26207 0.018243 6.91791C0.0200722 6.57375 0.146647 6.27775 0.397968 6.02992L6.14703 0.341644C6.27269 0.21731 6.40858 0.129279 6.55469 0.0775545C6.7008 0.0258303 6.85719 0.000828397 7.02385 0.00254752C7.19051 0.00343333 7.34662 0.0305159 7.49217 0.0837903C7.63772 0.137065 7.77267 0.226116 7.89701 0.350945L13.6164 6.13142C13.8443 6.3618 13.9574 6.64866 13.9555 6.99199C13.9537 7.33532 13.8271 7.63173 13.5758 7.88123Z" fill="#626262"/>
</svg>
